<?xml version="1.0" encoding="UTF-8"?>
<svg id="a" data-name="Layer_1" xmlns="http://www.w3.org/2000/svg" viewBox="0 0 841.89 595.28">
  <defs>
    <style>
      .b {
        fill: #083d34;
      }

      .c {
        fill: #35a674;
      }
    </style>
  </defs>
  <g>
    <path class="b" d="M122.16,294.73c3.88,1.34,6.92,3.34,9.12,6.01s3.29,6.4,3.29,11.17c0,3.25-.51,6-1.53,8.26-1.02,2.26-2.32,4.12-3.91,5.58-1.59,1.46-3.39,2.59-5.39,3.39-2.01.8-3.99,1.37-5.97,1.72-1.97.35-3.84.56-5.58.62-1.75.06-3.17.1-4.25.1h-25.39v-68.54h23.1c8.14,0,14.29,1.48,18.42,4.44,4.14,2.96,6.2,7.34,6.2,13.13,0,6.75-2.71,11.46-8.11,14.13ZM112.52,283.65c0-4.07-2.42-6.11-7.26-6.11h-4.96v12.12h4.96c4.84,0,7.26-2,7.26-6.01ZM108.22,316.59c3.05,0,5.25-.52,6.59-1.57,1.34-1.05,2.01-2.78,2.01-5.2s-.67-4.15-2.01-5.2c-1.34-1.05-3.53-1.58-6.59-1.58h-7.92v13.56h7.92Z"/>
    <path class="b" d="M211.99,331.57l-4.39-12.7h-25.68l-4.39,12.7h-18.9l25.2-68.54h21.86l25.2,68.54h-18.9ZM186.88,304.27h15.75l-7.83-22.72-7.92,22.72Z"/>
    <path class="b" d="M257.71,331.57v-68.54h17.76v52.98h20.05v15.56h-37.8Z"/>
    <path class="b" d="M323,331.57v-68.54h17.76v52.98h20.05v15.56h-37.8Z"/>
    <path class="b" d="M429.92,278.59h-23.87v11.07h21.29v15.27h-21.29v11.07h23.87v15.56h-41.62v-68.54h41.62v15.56Z"/>
    <path class="b" d="M517.74,331.57h-21.67l-17.28-26.54v26.54h-17.76v-68.54h23.48c5.16,0,9.4.48,12.74,1.43s6.12,2.39,8.35,4.3c1.91,1.66,3.42,3.79,4.53,6.4,1.11,2.61,1.67,5.79,1.67,9.55s-.83,7.45-2.48,10.88c-1.66,3.44-4.3,6.05-7.92,7.83-.45.19-.88.38-1.29.57-.41.19-.84.35-1.29.48l18.9,27.11ZM491.49,279.55c-1.27-.89-2.83-1.42-4.68-1.58-1.85-.16-3.47-.24-4.87-.24h-3.15v15.94h3.15c.63,0,1.4-.01,2.29-.05.89-.03,1.8-.11,2.72-.24.92-.13,1.81-.32,2.67-.57.86-.25,1.61-.64,2.24-1.15,1.46-1.15,2.2-3.12,2.2-5.92,0-1.59-.22-2.88-.67-3.87-.45-.99-1.08-1.77-1.91-2.34Z"/>
    <path class="b" d="M545.14,331.57v-68.54h17.76v68.54h-17.76Z"/>
    <path class="b" d="M642.51,263.03h17.76v68.54h-21.1l-26.06-43.24v43.24h-17.76v-68.54h20.91l26.25,42.96v-42.96Z"/>
    <path class="b" d="M740.45,331.57l-4.39-12.7h-25.68l-4.39,12.7h-18.9l25.2-68.54h21.86l25.2,68.54h-18.9ZM715.34,304.27h15.75l-7.83-22.72-7.92,22.72Z"/>
  </g>
  <path class="c" d="M277.27,245.06v-19.4c0-5.71,3.22-10.95,8.62-14.02l114.81-65.21c3-1.7,6.44-2.56,9.88-2.56s6.88.85,9.88,2.56l114.81,65.21c5.4,3.07,8.62,8.31,8.62,14.02v19.4h19.09v-19.4c0-12.48-7-24.21-18.28-30.62l-114.81-65.21c-11.91-6.76-26.71-6.76-38.62,0l-114.82,65.21c-11.28,6.41-18.28,18.14-18.28,30.62v19.4h19.09Z"/>
  <path class="c" d="M277.27,350.22v19.4c0,5.71,3.22,10.95,8.62,14.02l114.81,65.21c3,1.7,6.44,2.56,9.88,2.56s6.88-.85,9.88-2.56l114.81-65.21c5.4-3.07,8.62-8.31,8.62-14.02v-19.4h19.09v19.4c0,12.48-7,24.21-18.28,30.62l-114.81,65.21c-11.91,6.76-26.71,6.76-38.62,0l-114.82-65.21c-11.28-6.41-18.28-18.14-18.28-30.62v-19.4h19.09Z"/>
</svg>