<?xml version="1.0" encoding="UTF-8"?>
<svg id="a" data-name="Layer_1" xmlns="http://www.w3.org/2000/svg" viewBox="0 0 841.89 595.28">
  <defs>
    <style>
      .b {
        fill: #083d34;
      }

      .c {
        fill: #fff;
      }

      .d {
        fill: #35a674;
      }
    </style>
  </defs>
  <path class="d" d="M437.15,100.56l125.17,71.09c9.11,5.17,14.66,14.39,14.66,24.33v145.42c0,9.94-5.56,19.16-14.66,24.33l-125.17,71.09c-9.77,5.55-22.05,5.55-31.82,0l-125.17-71.09c-9.11-5.17-14.66-14.39-14.66-24.33v-145.42c0-9.94,5.56-19.16,14.66-24.33l125.17-71.09c9.77-5.55,22.05-5.55,31.82,0Z"/>
  <g>
    <path class="b" d="M287.79,491.19c2.38.75,4.24,1.92,5.56,3.5,1.32,1.58,1.99,3.79,1.99,6.61,0,2.6-.54,4.64-1.61,6.13-1.07,1.49-2.37,2.61-3.88,3.36-1.51.75-3.1,1.23-4.76,1.44-1.66.21-3.06.31-4.19.31h-14.89v-39.95h13.19c4.49,0,7.89.85,10.19,2.54,2.3,1.69,3.45,4.24,3.45,7.63,0,4.18-1.69,6.99-5.06,8.42ZM284.66,484.13c0-3.2-1.87-4.8-5.62-4.8h-4.83v9.61h4.83c3.75,0,5.62-1.6,5.62-4.8ZM281.01,505.6c4.09,0,6.13-1.73,6.13-5.2s-2.04-5.25-6.13-5.25h-6.81v10.45h6.81Z"/>
    <path class="b" d="M332.12,512.55l-2.99-8.36h-16.67l-2.99,8.36h-8.7l14.97-39.95h10.11l14.92,39.95h-8.64ZM314.89,497.46h11.81l-5.88-16.56-5.93,16.56Z"/>
    <path class="b" d="M347.89,512.55v-39.95h8.19v32.77h12.83v7.18h-21.02Z"/>
    <path class="b" d="M376.19,512.55v-39.95h8.19v32.77h12.83v7.18h-21.02Z"/>
    <path class="b" d="M427.83,479.77h-15.14v9.27h13.5v7.06h-13.5v9.27h15.14v7.18h-23.34v-39.95h23.34v7.18Z"/>
    <path class="b" d="M458.35,512.55l-9.55-14.63h-3.67v14.63h-8.19v-39.95h13.22c2.83,0,5.15.25,6.98.73,1.83.49,3.38,1.26,4.66,2.32,1.21.98,2.14,2.25,2.8,3.81.66,1.56.99,3.44.99,5.62,0,2.49-.48,4.79-1.44,6.92-.96,2.13-2.46,3.74-4.49,4.83-.3.15-.58.28-.85.4-.26.11-.55.23-.85.34l10.34,14.97h-9.94ZM445.12,479.38v12.26h3.84c1.05,0,2.18-.07,3.36-.2,1.19-.13,2.16-.46,2.91-.99,1.43-.98,2.15-2.62,2.15-4.92s-.68-3.84-2.03-4.86c-.79-.57-1.77-.92-2.94-1.07-1.17-.15-2.32-.23-3.45-.23h-3.84Z"/>
    <path class="b" d="M475.97,512.55v-39.95h8.19v39.95h-8.19Z"/>
    <path class="b" d="M522.25,472.6h8.19v39.95h-9.81l-17.82-28.65v28.65h-8.19v-39.95h9.72l17.91,28.48v-28.48Z"/>
    <path class="b" d="M568.86,512.55l-2.99-8.36h-16.67l-2.99,8.36h-8.7l14.97-39.95h10.11l14.92,39.95h-8.64ZM551.63,497.46h11.81l-5.88-16.56-5.93,16.56Z"/>
  </g>
  <g>
    <path class="c" d="M399.29,383.29c-.61,0-1.23-.01-1.84-.04-9.66-.4-18.09-3.97-23.15-9.77-10.07-11.56-10.7-40.99-11.5-78.25-.07-3.08-.13-6.2-.21-9.35-.62-26.45,3.72-44.19,6.6-55.93,1.43-5.85,2.56-10.48,2.56-13.91,0-11.43-.51-29.85-.52-30.03l9-.25c0,.19.52,18.73.52,30.28,0,4.52-1.24,9.61-2.82,16.05-2.92,11.95-6.93,28.32-6.34,53.58.07,3.16.14,6.28.21,9.36.7,32.62,1.36,63.43,9.29,72.53,3.39,3.89,9.64,6.39,16.74,6.69,7.56.32,14.7-1.86,18.63-5.68,7.53-7.31,12.12-53.72,8.46-85.61-1.09-9.56-2.67-19.33-4.2-28.78-2.64-16.36-5.14-31.81-4.53-43.02.91-16.88,2.75-34.02,2.77-34.19l8.95.96c-.02.17-1.83,17.07-2.73,33.71-.55,10.24,1.87,25.23,4.43,41.1,1.54,9.55,3.14,19.43,4.26,29.19,1.74,15.2,1.77,35.67.07,53.41-1.39,14.49-4.46,33.13-11.2,39.68-5.38,5.23-14.04,8.25-23.44,8.25Z"/>
    <path class="c" d="M398.08,210.17c-14.22,0-23.76-4.26-24.36-4.53l3.74-8.19c.19.08,18.96,8.32,42.33-.13l3.06,8.46c-9.09,3.29-17.54,4.39-24.77,4.39Z"/>
    <path class="c" d="M397.05,328.29c-24.34,0-33.93-39.75-34.33-41.48l8.76-2.05s0,0,0,0h0c2.35,9.98,11.72,35.63,26.63,34.49,15.42-1.18,19.84-12.92,24.82-30.68.69-2.47,1.41-5.02,2.17-7.45l8.59,2.69c-.72,2.3-1.39,4.68-2.09,7.19-4.43,15.8-9.95,35.47-32.8,37.23-.59.05-1.18.07-1.75.07Z"/>
    <rect class="c" x="396.49" y="210.03" width="9" height="57.84" transform="translate(-.69 476.74) rotate(-61.42)"/>
    <rect class="c" x="396.12" y="229.94" width="9" height="65.44" transform="translate(-21.7 488.78) rotate(-61.42)"/>
    <rect class="c" x="366.13" y="262.68" width="33.18" height="9" transform="translate(-69.51 151.65) rotate(-20.59)"/>
    <path class="c" d="M398.08,195.61c-14.22,0-23.76-4.26-24.36-4.53l3.74-8.19c.19.08,18.96,8.32,42.33-.13l3.06,8.46c-9.09,3.29-17.54,4.39-24.77,4.39Z"/>
    <g>
      <circle class="c" cx="376.19" cy="194.15" r="8.26"/>
      <path class="c" d="M376.19,206.91c-7.04,0-12.76-5.73-12.76-12.76s5.73-12.76,12.76-12.76,12.76,5.73,12.76,12.76-5.73,12.76-12.76,12.76ZM376.19,190.38c-2.07,0-3.76,1.69-3.76,3.76s1.69,3.76,3.76,3.76,3.76-1.69,3.76-3.76-1.69-3.76-3.76-3.76Z"/>
    </g>
    <path class="c" d="M366.98,198.55c-8.6-1.85-24.55-11.57-23.43-35.13l.25-5.22,5.12,1.02c27.69,5.49,31.55,25.03,31.7,25.86l-8.85,1.65c-.11-.53-2.64-11.98-19.1-17.27.67,6.49,3.18,11.69,7.49,15.51,4.2,3.72,8.69,4.78,8.73,4.79l-1.92,8.79Z"/>
    <path class="c" d="M351.6,219.3c-4.52,0-9.55-.91-15.06-3.13l-4.84-1.95,2.65-4.5c14.31-24.33,34.03-21.53,34.86-21.4l-1.35,8.9c-.54-.07-12.18-1.46-22.6,12.34,6.35,1.51,12.08.85,17.11-1.97,4.9-2.74,7.37-6.63,7.4-6.67l7.67,4.71c-3.43,5.62-12.38,13.68-25.83,13.68Z"/>
    <path class="c" d="M434.56,380.81c-2.7,0-4.87-.35-6.11-.6-6.95-1.44-11.11-4.47-11.56-4.81l-3.97-3,3.38-3.65c5.02-5.76,13.35-28.61,8.64-73.52v-.15c-1.89-26.07-4.37-41.18-6.17-52.21-.75-4.56-1.39-8.47-1.83-12.18l-27.55,5.83-1.86-8.81,37.59-7.95.33,5.2c.31,4.9,1.15,10,2.2,16.46,1.84,11.19,4.35,26.52,6.25,52.95,4.71,45-3.14,67.02-7.85,75.76,1.17.46,2.59.92,4.23,1.26,4.19.86,18.15,2.34,22.01-14.95,1.02-4.59,1.72-9.17,2.4-13.6,2.26-14.8,4.59-30.1,19.17-48.12l.07-.09c5.39-6.33,9.17-9.77,12.51-12.8,3.51-3.19,6.55-5.95,10.9-11.58,2.13-2.75,2.87-5.76,2.19-8.95-1.18-5.59-6.66-11.41-15.03-15.95-9.77-5.3-19.49-11.21-24.33-18.43-10.02-14.93-1.58-45.81-.59-49.29l8.65,2.48c-2.38,8.33-7.12,32.06-.59,41.79,3.79,5.65,13.3,11.27,21.15,15.53,10.86,5.89,17.8,13.71,19.55,22.01,1.22,5.81-.12,11.45-3.88,16.31-4.84,6.26-8.31,9.4-11.97,12.73-3.28,2.98-6.67,6.06-11.67,11.92-13.01,16.11-15.06,29.55-17.23,43.78-.7,4.57-1.42,9.3-2.51,14.2-2.83,12.68-10.1,18.07-15.71,20.37-3.87,1.58-7.68,2.04-10.79,2.04Z"/>
    <path class="c" d="M432.54,316.74l-3.71-8.2c.22-.1,21.92-10.36,35.97-43.13,9.36-21.81,11.73-28,11.75-28.06l8.41,3.2c-.09.25-2.42,6.33-11.89,28.41-15.53,36.2-39.52,47.33-40.54,47.78Z"/>
    <rect class="c" x="435.97" y="236.46" width="9" height="58" transform="translate(-71.47 314.54) rotate(-36.55)"/>
    <rect class="c" x="439.73" y="203.52" width="9" height="75.67" transform="translate(-55.91 315.19) rotate(-36.91)"/>
    <rect class="c" x="433.23" y="217.21" width="30.96" height="9" transform="translate(-30.04 367.64) rotate(-43.25)"/>
    <rect class="c" x="443.89" y="232.08" width="26.75" height="9" transform="translate(-37.9 377.54) rotate(-43.25)"/>
  </g>
</svg>