<?xml version="1.0" encoding="UTF-8"?>
<svg id="a" data-name="Layer_1" xmlns="http://www.w3.org/2000/svg" viewBox="0 0 841.89 595.28">
  <defs>
    <style>
      .b {
        fill: #083d34;
      }

      .c {
        fill: #35a674;
      }
    </style>
  </defs>
  <g>
    <path class="b" d="M191.17,305.61c3.55,1.12,6.31,2.86,8.28,5.22,1.97,2.36,2.96,5.64,2.96,9.84,0,3.87-.8,6.91-2.4,9.13-1.6,2.22-3.53,3.88-5.77,5.01-2.25,1.12-4.61,1.84-7.08,2.15-2.47.31-4.55.46-6.24.46h-22.17v-59.49h19.65c6.69,0,11.75,1.26,15.18,3.79,3.43,2.52,5.14,6.31,5.14,11.36,0,6.23-2.51,10.41-7.54,12.54ZM186.51,295.09c0-4.77-2.79-7.15-8.37-7.15h-7.2v14.3h7.2c5.58,0,8.37-2.38,8.37-7.15ZM181.08,327.07c6.09,0,9.13-2.58,9.13-7.74s-3.04-7.82-9.13-7.82h-10.14v15.57h10.14Z"/>
    <path class="b" d="M255.29,337.42l-4.46-12.45h-24.82l-4.46,12.45h-12.96l22.3-59.49h15.06l22.21,59.49h-12.87ZM229.62,314.95h17.59l-8.75-24.65-8.84,24.65Z"/>
    <path class="b" d="M454.82,288.61h-22.55v13.8h20.11v10.52h-20.11v13.8h22.55v10.69h-34.75v-59.49h34.75v10.69Z"/>
    <path class="b" d="M500.66,337.42l-14.22-21.79h-5.47v21.79h-12.2v-59.49h19.69c4.21,0,7.67.37,10.39,1.09,2.72.73,5.03,1.88,6.94,3.45,1.79,1.46,3.18,3.35,4.16,5.68.98,2.33,1.47,5.12,1.47,8.37,0,3.7-.72,7.14-2.15,10.31-1.43,3.17-3.66,5.57-6.69,7.19-.45.22-.87.42-1.26.59-.39.17-.81.34-1.26.51l15.4,22.3h-14.81ZM480.97,288.02v18.26h5.72c1.57,0,3.24-.1,5.01-.29,1.77-.2,3.21-.69,4.33-1.47,2.13-1.46,3.2-3.9,3.2-7.32s-1.01-5.72-3.03-7.24c-1.18-.84-2.64-1.37-4.38-1.6-1.74-.22-3.45-.34-5.13-.34h-5.72Z"/>
    <path class="b" d="M529.62,337.42v-59.49h12.2v59.49h-12.2Z"/>
    <path class="b" d="M598.94,277.93h12.2v59.49h-14.61l-26.53-42.66v42.66h-12.2v-59.49h14.47l26.67,42.41v-42.41Z"/>
    <path class="b" d="M669.91,337.42l-4.46-12.45h-24.82l-4.46,12.45h-12.96l22.3-59.49h15.06l22.21,59.49h-12.87ZM644.25,314.95h17.59l-8.75-24.65-8.84,24.65Z"/>
  </g>
  <g>
    <path class="b" d="M316.83,389.83c-.5,0-1.01-.01-1.52-.03-7.98-.33-14.95-3.28-19.14-8.09-8.3-9.53-8.81-33.59-9.47-64.04-.05-2.51-.11-5.06-.17-7.63-.5-21.63,3.04-36.12,5.39-45.72,1.16-4.75,2.08-8.5,2.08-11.26,0-9.31-.42-24.33-.42-24.48l8.07-.23c0,.15.42,15.28.42,24.71,0,3.73-1.02,7.9-2.31,13.18-2.38,9.73-5.64,23.05-5.16,43.61.06,2.58.11,5.13.17,7.65.57,26.53,1.11,51.59,7.49,58.92,2.7,3.1,7.7,5.09,13.39,5.33,6.07.25,11.79-1.48,14.93-4.53,6.08-5.91,9.77-43.59,6.8-69.52-.89-7.79-2.18-15.76-3.42-23.46-2.16-13.36-4.19-25.98-3.7-35.16.74-13.78,2.24-27.76,2.26-27.9l8.02.87c-.01.14-1.49,13.92-2.22,27.47-.45,8.31,1.52,20.52,3.61,33.44,1.26,7.79,2.56,15.86,3.47,23.83,2.76,24.11.5,66.82-9.19,76.23-4.45,4.33-11.61,6.83-19.37,6.83Z"/>
    <path class="b" d="M315.84,248.63c-11.69,0-19.54-3.5-20.02-3.73l3.35-7.34c.15.07,15.34,6.72,34.25-.12l2.75,7.59c-7.46,2.7-14.38,3.6-20.32,3.6Z"/>
    <path class="b" d="M315,344.97c-20.13,0-28.02-32.69-28.36-34.11l7.86-1.84c.07.28,6.96,27.88,20.56,27.88.26,0,.52-.01.78-.03,12.37-.95,15.78-9.99,19.92-24.76.57-2.01,1.15-4.1,1.77-6.08l7.7,2.41c-.59,1.87-1.13,3.81-1.7,5.85-3.65,13-8.18,29.18-27.08,30.63-.49.04-.98.06-1.46.06Z"/>
    <rect class="b" x="314.18" y="248.15" width="8.07" height="47.18" transform="translate(-72.66 421.16) rotate(-61.42)"/>
    <rect class="b" x="313.88" y="264.39" width="8.07" height="53.37" transform="translate(-89.79 430.98) rotate(-61.42)"/>
    <rect class="b" x="289.78" y="290.73" width="27.06" height="8.07" transform="translate(-84.27 125.46) rotate(-20.58)"/>
    <path class="b" d="M315.84,236.76c-11.69,0-19.54-3.5-20.02-3.73l3.35-7.34c.15.07,15.34,6.72,34.25-.12l2.75,7.59c-7.46,2.7-14.38,3.6-20.32,3.6Z"/>
    <g>
      <circle class="b" cx="297.99" cy="235.2" r="6.74"/>
      <path class="b" d="M297.99,245.97c-5.94,0-10.78-4.83-10.78-10.77s4.83-10.77,10.78-10.77,10.77,4.83,10.77,10.77-4.83,10.77-10.77,10.77ZM297.99,232.49c-1.49,0-2.7,1.21-2.7,2.7s1.21,2.7,2.7,2.7,2.7-1.21,2.7-2.7-1.21-2.7-2.7-2.7Z"/>
    </g>
    <path class="b" d="M290.4,239.14c-7.11-1.53-20.33-9.57-19.4-29.03l.22-4.68,4.59.91c22.83,4.53,26.02,20.7,26.14,21.39l-7.94,1.44,3.97-.72-3.96.77c-.09-.42-2.07-9.32-14.79-13.64.62,4.92,2.59,8.89,5.9,11.83,3.36,2.98,6.95,3.83,6.99,3.84l-1.73,7.88Z"/>
    <path class="b" d="M277.93,256.08c-3.73,0-7.88-.75-12.42-2.58l-4.34-1.75,2.37-4.04c11.8-20.06,28.12-17.74,28.81-17.63l-1.21,7.98c-.42-.05-9.48-1.11-17.75,9.47,12.48,2.67,18.35-5.91,19.04-7.01l6.88,4.23c-2.84,4.65-10.25,11.33-21.38,11.33Z"/>
    <path class="b" d="M345.47,387.8c-1.8,0-3.48-.19-4.94-.49-5.75-1.19-9.2-3.7-9.58-3.99l-3.56-2.69,3.03-3.27c4.05-4.67,10.78-23.23,6.95-59.68v-.13c-1.54-21.24-3.56-33.56-5.03-42.55-.58-3.56-1.09-6.64-1.45-9.56l-22.08,4.67-1.67-7.9,31.07-6.57.29,4.66c.25,3.98.93,8.13,1.79,13.39,1.5,9.13,3.55,21.64,5.1,43.21,2.16,20.66,1.42,37.84-2.21,51.09-1.3,4.75-2.78,8.18-4.02,10.55.85.32,1.86.62,2.99.86,3.33.69,14.45,1.86,17.52-11.92.83-3.74,1.4-7.46,1.95-11.06,1.85-12.12,3.76-24.65,15.71-39.42,4.47-5.26,7.57-8.07,10.3-10.55,2.85-2.59,5.32-4.83,8.85-9.4,1.67-2.15,2.25-4.51,1.72-7-.94-4.46-5.34-9.11-12.08-12.77-8.01-4.35-15.98-9.19-19.98-15.15-8.27-12.31-1.34-37.66-.53-40.5l7.76,2.22c-1.93,6.75-5.78,25.97-.53,33.78,3.05,4.54,10.75,9.09,17.12,12.55,8.95,4.86,14.68,11.32,16.13,18.2,1.02,4.84-.1,9.55-3.23,13.6-3.97,5.13-6.81,7.71-9.81,10.43-2.67,2.43-5.44,4.94-9.51,9.73-10.51,13-12.18,23.93-13.94,35.49-.57,3.74-1.16,7.6-2.05,11.6-3.27,14.64-13.88,18.55-22.09,18.55Z"/>
    <path class="b" d="M344.1,335.52l-3.31-7.36,1.66,3.68-1.67-3.67s4.48-2.09,10.26-7.41c5.33-4.91,12.94-13.68,18.9-27.58,7.63-17.77,9.56-22.82,9.58-22.87l7.54,2.87c-.08.2-1.98,5.17-9.71,23.18-12.73,29.66-32.42,38.79-33.25,39.16Z"/>
    <rect class="b" x="346.38" y="269.71" width="8.07" height="47.31" transform="translate(-105.8 266.4) rotate(-36.55)"/>
    <rect class="b" x="349.44" y="242.84" width="8.07" height="61.71" transform="translate(-93.53 267.17) rotate(-36.91)"/>
    <rect class="b" x="344.51" y="253.64" width="25.25" height="8.07" transform="translate(-79.56 314.59) rotate(-43.24)"/>
    <rect class="b" x="353.21" y="265.77" width="21.82" height="8.07" transform="translate(-85.97 322.66) rotate(-43.24)"/>
  </g>
  <g>
    <path class="c" d="M536.16,371.25c.75,0,1.45.13,2.1.4s1.22.65,1.71,1.14c.48.5.87,1.1,1.16,1.82.29.71.43,1.52.43,2.43s-.14,1.7-.43,2.41c-.29.71-.67,1.32-1.16,1.82-.48.5-1.05.88-1.71,1.13-.65.26-1.35.39-2.1.39s-1.43-.13-2.05-.39c-.62-.26-1.09-.63-1.43-1.13v1.3h-3.06v-16.51h3.06v6.76c.34-.51.81-.9,1.43-1.17.62-.26,1.3-.4,2.05-.4ZM535.52,380.25c.85,0,1.56-.28,2.12-.85s.85-1.35.85-2.37-.28-1.81-.85-2.4c-.57-.59-1.27-.88-2.12-.88s-1.58.29-2.13.88-.84,1.39-.84,2.4.28,1.8.84,2.37c.56.57,1.27.85,2.13.85Z"/>
    <path class="c" d="M551.08,371.47h3.32l-6.98,16.44h-3.32l2.62-5.9-4.51-10.54h3.3l2.8,7.46,2.77-7.46Z"/>
    <path class="c" d="M570.41,374.24c.93.29,1.65.75,2.17,1.36.52.62.77,1.47.77,2.57,0,1.01-.21,1.81-.63,2.39-.42.58-.92,1.02-1.51,1.31-.59.29-1.21.48-1.85.56-.65.08-1.19.12-1.63.12h-5.8v-15.56h5.14c1.75,0,3.07.33,3.97.99.9.66,1.35,1.65,1.35,2.97,0,1.63-.66,2.72-1.97,3.28ZM569.19,371.49c0-1.25-.73-1.87-2.19-1.87h-1.88v3.74h1.88c1.46,0,2.19-.62,2.19-1.87ZM567.77,379.85c1.59,0,2.39-.67,2.39-2.02s-.8-2.05-2.39-2.05h-2.65v4.07h2.65Z"/>
    <path class="c" d="M575.68,382.56v-15.56h3.19v12.76h5v2.8h-8.19Z"/>
    <path class="c" d="M595.27,368.19c.47.38.83.88,1.09,1.49.26.61.39,1.34.39,2.19,0,.98-.19,1.88-.56,2.68-.37.81-.96,1.42-1.75,1.85-.6.32-1.24.51-1.91.57-.67.06-1.27.09-1.78.09h-1.96v5.5h-3.19v-15.56h5.15c1.1,0,2.01.1,2.72.29.71.19,1.32.49,1.82.9ZM592.72,373.95c.56-.38.84-1.02.84-1.91s-.26-1.5-.79-1.89c-.31-.22-.69-.36-1.14-.42-.46-.06-.9-.09-1.34-.09h-1.5v4.78h1.5c.41,0,.85-.02,1.31-.08s.84-.18,1.13-.39Z"/>
    <path class="c" d="M604.56,382.56v-15.56h4.71c1.33,0,2.45.12,3.36.37s1.68.61,2.34,1.08c.91.66,1.59,1.52,2.05,2.59.45,1.06.68,2.31.68,3.73s-.23,2.67-.68,3.74c-.46,1.07-1.14,1.94-2.05,2.6-.66.47-1.44.83-2.34,1.08s-2.02.37-3.36.37h-4.71ZM607.75,379.76h1.52c1.47,0,2.63-.3,3.48-.9.6-.42,1.05-.98,1.33-1.67.29-.69.43-1.49.43-2.42s-.14-1.73-.43-2.41c-.29-.69-.73-1.24-1.33-1.65-.43-.29-.92-.52-1.5-.68-.57-.16-1.23-.24-1.98-.24h-1.52v9.97Z"/>
    <path class="c" d="M620.05,382.56v-15.56h3.19v15.56h-3.19Z"/>
    <path class="c" d="M633.32,382.87c-1.14,0-2.19-.2-3.15-.59-.95-.4-1.78-.95-2.47-1.66-.69-.71-1.23-1.56-1.61-2.55-.38-.99-.57-2.09-.57-3.29s.2-2.3.6-3.29c.4-.99.95-1.84,1.66-2.55.71-.71,1.55-1.26,2.53-1.65s2.04-.58,3.2-.58c1.55,0,2.93.33,4.12,1s2.11,1.6,2.77,2.78l-2.77,1.48c-.41-.75-.97-1.33-1.67-1.74-.7-.41-1.52-.62-2.44-.62-.7,0-1.35.12-1.94.37-.59.25-1.09.6-1.52,1.05-.43.45-.76.99-.99,1.63-.24.64-.35,1.35-.35,2.12s.11,1.46.33,2.1c.22.64.54,1.19.96,1.64.42.45.92.81,1.52,1.06s1.26.37,1.99.37c1.04,0,1.95-.28,2.75-.84s1.32-1.39,1.58-2.51h-4.2v-2.53h7.31v8.49h-2.49v-2.35c-.48.79-1.15,1.43-2,1.93-.85.49-1.9.74-3.15.74Z"/>
    <path class="c" d="M643.56,382.56v-15.56h3.19v15.56h-3.19Z"/>
    <path class="c" d="M659.16,367v2.8h-3.74v12.76h-3.19v-12.76h-3.76v-2.8h10.7Z"/>
    <path class="c" d="M669.92,382.56l-1.17-3.26h-6.49l-1.17,3.26h-3.39l5.83-15.56h3.94l5.81,15.56h-3.37ZM663.21,376.68h4.6l-2.29-6.45-2.31,6.45Z"/>
    <path class="c" d="M674.96,382.56v-15.56h3.19v12.76h5v2.8h-8.19Z"/>
  </g>
  <g>
    <path class="c" d="M192.99,248.63v-19.17c0-7.5,4.16-14.34,11.12-18.3l117.36-66.65c3.81-2.17,8.08-3.25,12.36-3.25s8.55,1.08,12.36,3.25l117.36,66.65c6.96,3.96,11.12,10.8,11.12,18.3v19.17h10.38v-19.17c0-11.12-6.27-21.59-16.37-27.32l-117.36-66.65c-10.78-6.12-24.18-6.12-34.96,0l-117.36,66.65c-10.1,5.74-16.37,16.21-16.37,27.32v19.17h10.38Z"/>
    <path class="c" d="M474.63,366.71c-.32,7.15-4.41,13.6-11.09,17.4l-117.36,66.65c-7.62,4.33-17.09,4.33-24.71,0l-117.36-66.65c-6.68-3.8-10.77-10.25-11.09-17.4h-10.38c.33,10.78,6.52,20.84,16.34,26.42l117.36,66.65c5.39,3.06,11.44,4.59,17.48,4.59,6.04,0,12.09-1.53,17.48-4.59l117.36-66.65c9.83-5.58,16.01-15.64,16.34-26.42h-10.38Z"/>
  </g>
</svg>