<?xml version="1.0" encoding="UTF-8"?>
<svg id="a" data-name="Layer_1" xmlns="http://www.w3.org/2000/svg" viewBox="0 0 841.89 595.28">
  <defs>
    <style>
      .b {
        fill: #083d34;
      }

      .c {
        fill: #fff;
      }
    </style>
  </defs>
  <path class="b" d="M445.21,117.83l106.58,60.53c7.75,4.4,12.49,12.25,12.49,20.72v123.82c0,8.46-4.73,16.31-12.49,20.72l-106.58,60.53c-8.32,4.73-18.78,4.73-27.1,0l-106.58-60.53c-7.75-4.4-12.49-12.26-12.49-20.72v-123.82c0-8.46,4.73-16.31,12.49-20.72l106.58-60.53c8.32-4.73,18.78-4.73,27.1,0Z"/>
  <g>
    <path class="b" d="M300.46,461.47c2.18.69,3.87,1.76,5.08,3.2,1.21,1.45,1.82,3.46,1.82,6.04,0,2.38-.49,4.24-1.47,5.6-.98,1.36-2.16,2.38-3.54,3.07-1.38.69-2.83,1.13-4.35,1.32-1.52.19-2.79.28-3.83.28h-13.61v-36.5h12.06c4.1,0,7.21.77,9.31,2.32s3.16,3.87,3.16,6.97c0,3.82-1.54,6.39-4.63,7.69ZM297.6,455.02c0-2.93-1.71-4.39-5.14-4.39h-4.42v8.78h4.42c3.42,0,5.14-1.46,5.14-4.39ZM294.27,474.64c3.73,0,5.6-1.58,5.6-4.75s-1.87-4.8-5.6-4.8h-6.22v9.55h6.22Z"/>
    <path class="b" d="M343.55,480.99l-2.74-7.64h-15.23l-2.74,7.64h-7.95l13.68-36.5h9.24l13.63,36.5h-7.9ZM327.8,467.2h10.79l-5.37-15.13-5.42,15.13Z"/>
    <path class="b" d="M360.54,480.99v-36.5h7.49v29.95h11.72v6.56h-19.21Z"/>
    <path class="b" d="M388.99,480.99v-36.5h7.49v29.95h11.72v6.56h-19.21Z"/>
    <path class="b" d="M438.76,451.04h-13.84v8.47h12.34v6.45h-12.34v8.47h13.84v6.56h-21.32v-36.5h21.32v6.56Z"/>
    <path class="b" d="M469.22,480.99l-8.73-13.37h-3.36v13.37h-7.49v-36.5h12.08c2.58,0,4.71.22,6.38.67,1.67.45,3.09,1.15,4.26,2.12,1.1.9,1.95,2.06,2.56,3.48.6,1.43.9,3.14.9,5.14,0,2.27-.44,4.38-1.32,6.32-.88,1.94-2.25,3.42-4.1,4.41-.28.14-.53.26-.77.36-.24.1-.5.21-.77.31l9.45,13.68h-9.09ZM457.14,450.68v11.2h3.51c.96,0,1.99-.06,3.07-.18,1.08-.12,1.97-.42,2.66-.9,1.31-.89,1.96-2.39,1.96-4.49s-.62-3.51-1.86-4.44c-.72-.52-1.62-.84-2.68-.98-1.07-.14-2.12-.21-3.15-.21h-3.51Z"/>
    <path class="b" d="M487.91,480.99v-36.5h7.49v36.5h-7.49Z"/>
    <path class="b" d="M532.78,444.49h7.49v36.5h-8.97l-16.28-26.18v26.18h-7.49v-36.5h8.88l16.37,26.02v-26.02Z"/>
    <path class="b" d="M577.95,480.99l-2.74-7.64h-15.23l-2.74,7.64h-7.95l13.68-36.5h9.24l13.63,36.5h-7.9ZM562.21,467.2h10.79l-5.37-15.13-5.42,15.13Z"/>
  </g>
  <path class="c" d="M429.67,333.94c.23-2.19-.1-4.34-.73-6.42-1.55-5.08-4.01-9.67-4.06-14.98-.03-2.76.81-4.35,1.75-8.88.21-.99.19-2.01.29-2.96,2.39-.29,4.7-.53,6.99-.87,4.36-.64,8.69-1.45,12.95-2.6,4.58-1.24,8.87-3.07,12.54-6.17,3.34-2.81,6.31-5.97,9.11-9.3,1.72-2.04,4.61-9.32,5.21-9.18,3.34.8,7.74,2.17,10.7,3.32,1.68.65,7.84,3.36,9.53,3.99,3.19,1.2,5.32,1.99,9.31,3.82,2.41,1.1,3.95,1.68,6.5,2.37.7.19,1.88.05,2.27-.63.21-.37,1.15-2.08.86-2.59-1.7-2.91-3.97-5.14-7.29-6.16-1.57-.49-3.19-.93-4.52-1.96-.82-.64-1.59-1.35-2.34-2.07-.51-.49-1.11-.73-1.77-.61-1.04.18-.41,2.56-1.41,2.89-1.33.44-5.78-3.55-6.85-4.47-2.77-2.35-10.15-5.47-10.68-5.73.17-.34,2.34-6.25,1.4-9.23-.41-1.29-1.12-2.28-2.53-2.64-1.01-.26-12.17-1.03-21.96-1.18-12.81-.2-25.03-2.24-27.15-2.93-4.06-1.31-3.94-9.98-3.91-10.54.03-.54,2.68-6.46,3.75-7.23,1.64-1.17,6.37-.57,8.43-.2.64.11,16.22.65,17.84.47,2.45-.27,4.91-.56,7.36-.85,1.27-.15,2.64-.06,3.78-.52,2.82-1.13,5.61-2.38,8.28-3.83,3.99-2.16,9.03-7.09,12.95-9.38.92-.54,2.2-.19,2.93-.93,1.25-1.26.05-5.64.4-7.41.31-1.56,2.66-1.84,3.83-1.97.28-.03.73-.33.74-.52.02-.46-.41-.59-.84-.6-.4,0-.8,0-1.2,0,0-.07-.01-.15-.02-.22.5-.11,1-.22,1.5-.32.83-.17,1.66-.3,2.47-.51.16-.04.29-.34.34-.54.02-.09-.17-.33-.29-.34-1.63-.22-3.26-.53-4.89-.58-1.66-.05-2.98.81-4.06,2.15-.19-.37-.32-.73-.53-1.02-.44-.6-.9-1.2-1.41-1.74-.15-.16-.5-.12-.76-.17-.03.28-.1.56-.07.83.09.74,1.21,2.09,1.4,2.81.61,2.38.06,4.15.13,6.48.04,1.51-1.9,2.24-3.17,2.83-6.42,2.95-12.99,5.54-19.72,7.69-1.04.33-2.18.5-3.27.47-2.58-.08-5.15-.32-7.73-.5-1.82-.13-3.63-.28-5.45-.4-3.3-.23-6.44-1.17-9.57-2.14-1.41-.44-2.83-.79-4.35-.61-1.01.12-2.04.16-3.05.07-1.87-.17-2.7-2.05-4.28-2.75-3.03-1.34-4.49-2.95-4.41-5.08.02-.69,1.8-3.24,2.37-3.66.42-.31,5.64.46,6.87-5.23.16-.71.7-1.28,1.05-1.92.34.1.62.15.87.27,1.07.48,2.01.21,2.94-.41,1.91-1.27,2.7-3.21,3.06-5.33.39-2.28,1.21-7.69-3.08-9.4-2.14-.85-3.49-.88-5.69-.13-1.54.53-2.47,1.93-2.47,2.13-.2-.06-3-1.37-4.33-1.65-2.54-.53-5-.09-7.44.6-1.26.36-2.47.83-3.49,1.68-1.69,1.41-2.62,3.28-3.2,5.34-.48,1.71-1.27,3.17-2.89,4.08-.8.45-.82.81-.32,1.6.25.4.56.83.6,1.27.15,1.71.2,3.42.29,5.14.07,1.33.77,2.02,1.89,1.87.64-.09,1.28-.19,1.92-.31,1.48-.26,2.14.11,2.44,1.59.19.97.28,1.98.23,2.97-.06,1.25-.72,2.27-1.65,3.16-.42-.66-.8-1.3-1.22-1.9-1.08-1.52-2.05-3.15-3.73-4.12-1.5-.87-2.99-1.79-4.54-2.57-3.12-1.57-6.13-3.26-8.5-5.92-1.57-1.75-3.27-3.37-4.87-5.1-.85-.92-1.64-1.91-2.38-2.93-1.47-2.04-3.12-3.91-4.95-5.62-2.43-2.27-4.91-4.48-7.35-6.74-1.75-1.63-3.44-3.33-5.17-4.98-.94-.89-1.98-1.64-3.25-1.98-1.78-.48-3.46-1.17-5.01-2.16-1.7-1.09-3.49-1.21-5.38-.72-2.28.59-4.33,1.67-6.35,2.83-.44.25-.69.62-.47,1.08.22.47.71.46,1.14.3.49-.19.98-.39,1.42-.65,1.25-.75,5.22-2.08,6.3-1.01-2.3.5-3.83,1.93-4.48,2.5-.41.36-.81.81-1.02,1.3-.33.77.02,1.14.83.93.59-.15,1.16-.36,1.73-.58,1.27-.47,2.55-1.01,3.88-.24,1.42.83,2.89.93,4.47.61.5-.1,1.94-.91,2.44-.78.9.24,7.53,11.51,10.7,16,1.14,1.62,2.17,3.33,3.46,4.81,3,3.44,6.13,6.75,9.19,10.14,2.67,2.96,5.68,5.51,9.14,7.49,1.21.7,2.2,1.64,2.69,2.92.54,1.43.92,2.93,1.25,4.43.29,1.34-.06,2.57-.96,3.64-.28.33-.46.79-.54,1.22-.33,1.66-.22,3.33.16,4.98.4,1.75.84,3.5,1.19,5.27.27,1.38.36,2.79.63,4.18.61,3.1,2.27,5.76,3.72,8.51.61,1.16,1.23,2.3,1.8,3.48.38.78.23,1.22-.5,1.72-.16.11-.33.21-.5.31-1.66.95-28.74,32.02-27.94,34.16.94,3.95,12.29,9.65,32.32,11.11,2.18.16.61,3,.97,5.16.33,1.96.81,5.25,1.07,7.22.2,1.48.26,2.97.84,4.39.9,2.19,1.69,4.43,2.02,6.79.28,2.02.45,4.05.71,6.07.75,5.7,2.03,11.31,3.29,16.91,1.25,5.58,2.09,11.2,1.84,16.96-.16,3.56.02,7.14.07,10.71,0,.78.09,1.56.14,2.34.13,2.04.28,4.07.38,6.11.07,1.59.7,2.41,2.29,2.39,1.6-.02,2.08-.09,2.48-1.53.2-.73.3-1.48.44-2.23.32-1.84.5-3.71.99-5.5.86-3.17,2.65-5.78,5.25-7.83,1.03-.81,1.82-1.83,2.08-3.15.09-.46.07-1-.1-1.43-.53-1.39-1.61-2.35-2.76-3.22-1.15-.87-3.9-1.75-4.1-3.19"/>
</svg>