<?xml version="1.0" encoding="UTF-8" standalone="no"?>
<!-- Created with Inkscape (http://www.inkscape.org/) -->

<svg
   version="1.1"
   id="svg2"
   width="453.37332"
   height="182.8"
   viewBox="0 0 453.37332 182.8"
   sodipodi:docname="blp_digital_logo.eps"
   xmlns:inkscape="http://www.inkscape.org/namespaces/inkscape"
   xmlns:sodipodi="http://sodipodi.sourceforge.net/DTD/sodipodi-0.dtd"
   xmlns="http://www.w3.org/2000/svg"
   xmlns:svg="http://www.w3.org/2000/svg">
  <defs
     id="defs6">
    <clipPath
       clipPathUnits="userSpaceOnUse"
       id="clipPath18">
      <path
         d="m 85.4883,1092.11 452.1137,256.83 c 51.742,29.39 115.132,29.39 166.871,0 l 452.117,-256.83 c 52.84,-30.01 85.48,-86.1 85.48,-146.88 V 422.32 c 0,-61.55 -33.47,-118.218 -87.37,-147.941 L 695,20.9805 c -51.398,-28.32034 -113.809,-27.94925 -164.863,1 L 85.6094,274.012 C 32.6992,304.012 0,360.129 0,420.953 V 945.23 c 0,60.78 32.6445,116.87 85.4883,146.88 z"
         clip-rule="evenodd"
         id="path16" />
    </clipPath>
    <clipPath
       clipPathUnits="userSpaceOnUse"
       id="clipPath24">
      <path
         d="M -3219.46,-6662.25 H 7631.31 V 2211.13 H -3219.46 Z"
         id="path22" />
    </clipPath>
    <clipPath
       clipPathUnits="userSpaceOnUse"
       id="clipPath36">
      <path
         d="m 124.523,1062.47 419.161,238.11 c 47.968,27.25 106.738,27.25 154.707,0 l 419.159,-238.11 c 49,-27.83 79.26,-79.825 79.26,-136.169 V 441.5 c 0,-57.059 -31.04,-109.609 -81.01,-137.148 L 689.609,69.4219 C 641.957,43.1602 584.094,43.5 536.762,70.3398 L 124.633,304 C 75.5781,331.809 45.2656,383.855 45.2656,440.238 v 486.063 c 0,56.344 30.2657,108.339 79.2574,136.169 z"
         clip-rule="evenodd"
         id="path34" />
    </clipPath>
    <clipPath
       clipPathUnits="userSpaceOnUse"
       id="clipPath46">
      <path
         d="m 124.523,1062.47 419.161,238.11 c 47.968,27.25 106.738,27.25 154.707,0 l 419.159,-238.11 c 49,-27.83 79.26,-79.825 79.26,-136.169 V 441.5 c 0,-57.059 -31.04,-109.609 -81.01,-137.148 L 689.609,69.4219 C 641.957,43.1602 584.094,43.5 536.762,70.3398 L 124.633,304 C 75.5781,331.809 45.2656,383.855 45.2656,440.238 v 486.063 c 0,56.344 30.2657,108.339 79.2574,136.169 z"
         clip-rule="evenodd"
         id="path44" />
    </clipPath>
    <clipPath
       clipPathUnits="userSpaceOnUse"
       id="clipPath52">
      <path
         d="M -2939.53,-6126.69 H 7120.35 V 2099.93 H -2939.53 Z"
         id="path50" />
    </clipPath>
    <clipPath
       clipPathUnits="userSpaceOnUse"
       id="clipPath62">
      <path
         d="m 331.184,490.496 c 18.316,0 34.976,2.742 49.992,8.25 15.015,5.5 27.832,13.195 38.453,23.098 10.617,9.902 18.859,21.543 24.719,34.929 5.859,13.391 8.789,28.145 8.789,44.278 0,12.472 -1.922,23.929 -5.77,34.387 -3.844,10.449 -9.062,19.523 -15.656,27.226 -6.59,7.699 -14.008,14.027 -22.246,18.977 -8.242,4.953 -16.75,8.527 -25.539,10.722 16.109,5.137 29.66,15.313 40.648,30.535 10.985,15.211 16.481,32.911 16.481,53.079 0,15.035 -2.75,28.878 -8.242,41.531 -5.497,12.648 -13.368,23.648 -23.622,33.008 -10.253,9.347 -22.98,16.683 -38.175,22 -15.203,5.316 -32.321,7.972 -51.364,7.972 H 174.078 V 490.496 Z M 305.918,724.27 h -47.242 v 84.164 h 46.14 c 17.215,0 30.036,-3.758 38.457,-11.282 8.426,-7.515 12.633,-17.691 12.633,-30.523 0,-13.203 -4.488,-23.566 -13.457,-31.082 -8.972,-7.52 -21.152,-11.277 -36.531,-11.277 z m 7.141,-162.821 h -54.383 v 91.313 h 54.383 c 17.214,0 30.488,-4.215 39.824,-12.653 9.344,-8.433 14.012,-19.433 14.012,-33.004 0,-13.933 -4.762,-25.031 -14.286,-33.281 -9.519,-8.254 -22.703,-12.375 -39.55,-12.375 z m 454.839,-70.953 v 83.055 H 599.805 V 880.488 H 513.012 V 490.496 Z m 142.825,0 v 140.262 h 59.875 c 19.777,0 37.812,3.027 54.112,9.078 16.29,6.051 30.39,14.574 42.29,25.574 11.9,11.004 21.06,24.203 27.47,39.606 6.41,15.406 9.61,32.277 9.61,50.609 0,17.969 -3.2,34.652 -9.61,50.055 -6.41,15.406 -15.57,28.601 -27.47,39.605 -11.9,11 -26,19.617 -42.29,25.856 -16.3,6.234 -34.335,9.347 -54.112,9.347 H 823.93 V 490.496 Z m 51.086,215.07 H 911.27 v 99.567 h 50.539 c 16.48,0 29.843,-4.403 40.101,-13.203 10.25,-8.805 15.38,-21.09 15.38,-36.856 0,-15.398 -5.13,-27.504 -15.38,-36.304 -10.258,-8.801 -23.621,-13.204 -40.101,-13.204 z"
         id="path60" />
    </clipPath>
    <clipPath
       clipPathUnits="userSpaceOnUse"
       id="clipPath68">
      <path
         d="M -163.238,-6294 H 10756.8 V 2636 H -163.238 Z"
         id="path66" />
    </clipPath>
    <clipPath
       clipPathUnits="userSpaceOnUse"
       id="clipPath80">
      <path
         d="M 0,0 H 3400 V 1371 H 0 Z"
         id="path78" />
    </clipPath>
    <clipPath
       clipPathUnits="userSpaceOnUse"
       id="clipPath86">
      <path
         d="m 1686.88,442.945 c 30.25,0 59.26,5.071 87.03,15.196 27.77,10.136 52.27,25.214 73.49,45.254 21.23,20.031 38.04,44.902 50.45,74.621 12.43,29.714 18.64,64.152 18.64,103.32 0,39.168 -6.21,73.723 -18.64,103.66 -12.41,29.942 -29,55.039 -49.77,75.297 -20.77,20.262 -45.05,35.566 -72.81,45.926 -27.78,10.355 -56.79,15.531 -87.04,15.531 H 1520.25 V 442.945 Z m -1.01,58.801 h -98.17 v 361.203 h 99.52 c 22.12,0 43,-3.828 62.64,-11.476 19.63,-7.653 36.78,-19.016 51.45,-34.094 14.67,-15.078 26.29,-33.984 34.87,-56.715 8.57,-22.726 12.87,-49.176 12.87,-79.328 0,-30.156 -4.3,-56.484 -12.87,-78.984 -8.58,-22.512 -20.32,-41.196 -35.21,-56.047 -14.89,-14.856 -32.28,-25.989 -52.13,-33.418 -19.86,-7.422 -40.85,-11.141 -62.97,-11.141 z m 344.08,344.402 c 13.29,0 24.39,4.45 33.31,13.344 8.94,8.903 13.4,19.738 13.4,32.516 0,13.23 -4.46,24.297 -13.4,33.191 -8.92,8.899 -20.02,13.352 -33.31,13.352 -12.82,0 -23.7,-4.453 -32.62,-13.352 -8.94,-8.894 -13.4,-19.961 -13.4,-33.191 0,-12.778 4.46,-23.613 13.4,-32.516 8.92,-8.894 19.8,-13.344 32.62,-13.344 z m 29.86,-403.203 v 327.602 h -59.02 V 442.945 Z M 2302.1,308.551 c 30.54,0 56.15,4.621 76.81,13.879 20.65,9.25 37.39,21.422 50.19,36.539 12.8,15.121 21.89,32.492 27.28,52.121 5.39,19.629 8.09,39.824 8.09,60.578 v 301.187 h -62.66 v -45.343 c -8.09,16.246 -20.43,28.875 -37.05,37.898 -16.62,9.024 -37.5,13.539 -62.66,13.539 -22.46,0 -42.78,-4.172 -60.96,-12.523 -18.2,-8.344 -33.8,-19.629 -46.83,-33.84 -13.03,-14.215 -23.13,-30.91 -30.31,-50.086 -7.19,-19.18 -10.78,-39.816 -10.78,-61.934 0,-23.011 3.7,-44.211 11.11,-63.617 7.41,-19.402 17.74,-35.984 31,-49.746 13.24,-13.769 28.96,-24.598 47.15,-32.488 18.19,-7.902 38.06,-11.848 59.62,-11.848 24.26,0 44.91,5.188 61.99,15.567 17.07,10.382 29.41,23.015 37.05,37.902 v -46.699 c 0,-35.196 -7.97,-61.594 -23.92,-79.192 -15.95,-17.597 -40.98,-26.394 -75.12,-26.394 -24.7,0 -45.03,7.558 -60.96,22.676 -15.95,15.117 -25.04,34.175 -27.29,57.187 l -61.31,-14.211 c 1.8,-17.598 6.85,-33.73 15.16,-48.398 8.31,-14.657 19.09,-27.414 32.33,-38.235 13.25,-10.832 28.53,-19.289 45.82,-25.39 17.29,-6.078 36.04,-9.129 56.25,-9.129 z m 11.29,201.601 c -28.67,0 -51.4,9.422 -68.21,28.289 -16.8,18.872 -25.2,44.438 -25.2,76.707 0,31.821 8.52,57.274 25.54,76.368 17.02,19.086 39.65,28.632 67.87,28.632 27.33,0 49.5,-9.546 66.53,-28.632 17.03,-19.094 25.53,-44.547 25.53,-76.368 0,-31.824 -8.5,-57.269 -25.53,-76.363 -17.03,-19.094 -39.2,-28.633 -66.53,-28.633 z m 281.41,335.996 c 13.28,0 24.38,4.45 33.31,13.344 8.93,8.903 13.4,19.738 13.4,32.516 0,13.23 -4.47,24.297 -13.4,33.191 -8.93,8.899 -20.03,13.352 -33.31,13.352 -12.82,0 -23.7,-4.453 -32.63,-13.352 -8.93,-8.894 -13.4,-19.961 -13.4,-33.191 0,-12.778 4.47,-23.613 13.4,-32.516 8.93,-8.894 19.81,-13.344 32.63,-13.344 z m 29.85,-403.203 v 327.602 h -59.01 V 442.945 Z m 226.98,0 c 10.7,0 19.84,0.789 27.42,2.356 7.57,1.558 12.7,2.801 15.38,3.687 v 53.723 c -2.68,-0.898 -6.47,-1.57 -11.37,-2.012 -4.9,-0.449 -9.37,-0.676 -13.38,-0.676 -16.48,0 -28.08,3.696 -34.76,11.079 -6.69,7.39 -10.03,18.464 -10.03,33.242 v 167.863 h 69.54 v 57.074 h -69.54 v 102.067 h -57.5 v -52.371 c 0,-14.329 -3.91,-26.192 -11.7,-35.59 -7.81,-9.403 -20.4,-14.106 -37.79,-14.106 h -17.38 v -57.074 h 61.51 V 534.938 c 0,-29.54 8.03,-52.254 24.08,-68.157 16.04,-15.886 37.89,-23.836 65.52,-23.836 z m 218.7,-8.398 c 14.36,0 27.27,1.687 38.73,5.058 11.44,3.372 21.44,7.747 29.97,13.145 8.53,5.391 15.72,11.23 21.56,17.52 5.83,6.289 10.55,12.355 14.14,18.195 0,-11.684 0.34,-20.891 1.02,-27.629 0.67,-6.738 1.45,-12.129 2.35,-16.184 h 61.97 c -0.9,4.055 -1.8,10.344 -2.69,18.879 -0.9,8.535 -1.35,19.992 -1.35,34.375 v 162.422 c 0,15.727 -2.47,30.781 -7.4,45.156 -4.95,14.379 -12.81,26.957 -23.59,37.746 -10.77,10.782 -24.69,19.434 -41.76,25.946 -17.07,6.515 -37.72,9.773 -61.98,9.773 -17.51,0 -34.01,-2.586 -49.5,-7.754 -15.5,-5.164 -29.08,-12.351 -40.76,-21.566 -11.67,-9.207 -21.21,-20.332 -28.62,-33.359 -7.42,-13.032 -12.02,-27.18 -13.81,-42.461 l 60.62,-14.157 c 2.25,18.875 9.43,34.489 21.55,46.844 12.13,12.359 29.42,18.535 51.88,18.535 24.7,0 42.55,-5.726 53.54,-17.187 11.01,-11.457 16.51,-25.051 16.51,-40.774 0,-5.843 -1.68,-11.007 -5.05,-15.504 -3.37,-4.492 -9.99,-7.41 -19.87,-8.757 L 3060.22,630 c -13.93,-2.246 -26.95,-5.84 -39.07,-10.781 -12.13,-4.946 -22.57,-11.457 -31.32,-19.543 -8.76,-8.086 -15.62,-17.863 -20.55,-29.317 -4.94,-11.464 -7.41,-24.375 -7.41,-38.761 0,-13.028 2.58,-25.379 7.74,-37.059 5.17,-11.691 12.46,-21.906 21.9,-30.676 9.43,-8.758 20.77,-15.832 34.01,-21.23 13.25,-5.391 28.18,-8.086 44.81,-8.086 z m 10.49,58.801 c -15.85,0 -28.39,4.773 -37.64,14.316 -9.25,9.551 -13.87,20.313 -13.87,32.293 0,14.211 4.4,25.195 13.21,32.961 8.8,7.773 19.82,12.762 33.02,14.98 l 97.09,14.649 v -14.649 c 0,-17.304 -2.42,-32.074 -7.27,-44.277 -4.84,-12.207 -11.33,-21.973 -19.48,-29.301 -8.14,-7.32 -17.83,-12.644 -29.06,-15.972 -11.23,-3.332 -23.22,-5 -36,-5 z m 319.44,-50.403 v 487.203 h -67.45 V 442.945 Z"
         id="path84" />
    </clipPath>
  </defs>
  <sodipodi:namedview
     id="namedview4"
     pagecolor="#ffffff"
     bordercolor="#000000"
     borderopacity="0.25"
     inkscape:showpageshadow="2"
     inkscape:pageopacity="0.0"
     inkscape:pagecheckerboard="0"
     inkscape:deskcolor="#d1d1d1" />
  <g
     id="g8"
     inkscape:groupmode="layer"
     inkscape:label="ink_ext_XXXXXX"
     transform="matrix(1.3333333,0,0,-1.3333333,0,182.8)">
    <g
       id="g10"
       transform="scale(0.1)">
      <g
         id="g12">
        <g
           id="g14"
           clip-path="url(#clipPath18)">
          <g
             id="g20"
             clip-path="url(#clipPath24)">
            <path
               d="M -49.6836,1420.66 H 1291.76 V -49.6797 H -49.6836 V 1420.66"
               style="fill:#5c7b96;fill-opacity:1;fill-rule:nonzero;stroke:none"
               id="path26" />
          </g>
        </g>
      </g>
      <path
         d="m 124.523,1062.47 419.161,238.11 c 47.968,27.25 106.738,27.25 154.707,0 l 419.159,-238.11 c 49,-27.83 79.26,-79.825 79.26,-136.169 V 441.5 c 0,-57.059 -31.04,-109.609 -81.01,-137.148 L 689.609,69.4219 C 641.957,43.1602 584.094,43.5 536.762,70.3398 L 124.633,304 C 75.5781,331.809 45.2656,383.855 45.2656,440.238 v 486.063 c 0,56.344 30.2657,108.339 79.2574,136.169"
         style="fill:#27394c;fill-opacity:1;fill-rule:evenodd;stroke:none"
         id="path28" />
      <g
         id="g30">
        <g
           id="g32"
           clip-path="url(#clipPath36)">
          <path
             d="M -2939.53,-6126.69 H 7120.35 V 2099.93 H -2939.53 v -8226.62"
             style="fill:#27394c;fill-opacity:1;fill-rule:nonzero;stroke:none"
             id="path38" />
        </g>
      </g>
      <g
         id="g40">
        <g
           id="g42"
           clip-path="url(#clipPath46)">
          <g
             id="g48"
             clip-path="url(#clipPath52)">
            <path
               d="M -0.796875,1367.08 H 1242.87 V 3.89844 H -0.796875 V 1367.08"
               style="fill:#27394c;fill-opacity:1;fill-rule:nonzero;stroke:none"
               id="path54" />
          </g>
        </g>
      </g>
      <g
         id="g56">
        <g
           id="g58"
           clip-path="url(#clipPath62)">
          <g
             id="g64"
             clip-path="url(#clipPath68)">
            <path
               d="M 124.078,930.488 H 1154.08 V 440.496 H 124.078 v 489.992"
               style="fill:#ffffff;fill-opacity:1;fill-rule:nonzero;stroke:none"
               id="path70" />
          </g>
        </g>
      </g>
      <path
         d="m 1686.88,442.945 c 30.25,0 59.26,5.071 87.03,15.196 27.77,10.136 52.27,25.214 73.49,45.254 21.23,20.031 38.04,44.902 50.45,74.621 12.43,29.714 18.64,64.152 18.64,103.32 0,39.168 -6.21,73.723 -18.64,103.66 -12.41,29.942 -29,55.039 -49.77,75.297 -20.77,20.262 -45.05,35.566 -72.81,45.926 -27.78,10.355 -56.79,15.531 -87.04,15.531 H 1520.25 V 442.945 Z m -1.01,58.801 h -98.17 v 361.203 h 99.52 c 22.12,0 43,-3.828 62.64,-11.476 19.63,-7.653 36.78,-19.016 51.45,-34.094 14.67,-15.078 26.29,-33.984 34.87,-56.715 8.57,-22.726 12.87,-49.176 12.87,-79.328 0,-30.156 -4.3,-56.484 -12.87,-78.984 -8.58,-22.512 -20.32,-41.196 -35.21,-56.047 -14.89,-14.856 -32.28,-25.989 -52.13,-33.418 -19.86,-7.422 -40.85,-11.141 -62.97,-11.141 z m 344.08,344.402 c 13.29,0 24.39,4.45 33.31,13.344 8.94,8.903 13.4,19.738 13.4,32.516 0,13.23 -4.46,24.297 -13.4,33.191 -8.92,8.899 -20.02,13.352 -33.31,13.352 -12.82,0 -23.7,-4.453 -32.62,-13.352 -8.94,-8.894 -13.4,-19.961 -13.4,-33.191 0,-12.778 4.46,-23.613 13.4,-32.516 8.92,-8.894 19.8,-13.344 32.62,-13.344 z m 29.86,-403.203 v 327.602 h -59.02 V 442.945 Z M 2302.1,308.551 c 30.54,0 56.15,4.621 76.81,13.879 20.65,9.25 37.39,21.422 50.19,36.539 12.8,15.121 21.89,32.492 27.28,52.121 5.39,19.629 8.09,39.824 8.09,60.578 v 301.187 h -62.66 v -45.343 c -8.09,16.246 -20.43,28.875 -37.05,37.898 -16.62,9.024 -37.5,13.539 -62.66,13.539 -22.46,0 -42.78,-4.172 -60.96,-12.523 -18.2,-8.344 -33.8,-19.629 -46.83,-33.84 -13.03,-14.215 -23.13,-30.91 -30.31,-50.086 -7.19,-19.18 -10.78,-39.816 -10.78,-61.934 0,-23.011 3.7,-44.211 11.11,-63.617 7.41,-19.402 17.74,-35.984 31,-49.746 13.24,-13.769 28.96,-24.598 47.15,-32.488 18.19,-7.902 38.06,-11.848 59.62,-11.848 24.26,0 44.91,5.188 61.99,15.567 17.07,10.382 29.41,23.015 37.05,37.902 v -46.699 c 0,-35.196 -7.97,-61.594 -23.92,-79.192 -15.95,-17.597 -40.98,-26.394 -75.12,-26.394 -24.7,0 -45.03,7.558 -60.96,22.676 -15.95,15.117 -25.04,34.175 -27.29,57.187 l -61.31,-14.211 c 1.8,-17.598 6.85,-33.73 15.16,-48.398 8.31,-14.657 19.09,-27.414 32.33,-38.235 13.25,-10.832 28.53,-19.289 45.82,-25.39 17.29,-6.078 36.04,-9.129 56.25,-9.129 z m 11.29,201.601 c -28.67,0 -51.4,9.422 -68.21,28.289 -16.8,18.872 -25.2,44.438 -25.2,76.707 0,31.821 8.52,57.274 25.54,76.368 17.02,19.086 39.65,28.632 67.87,28.632 27.33,0 49.5,-9.546 66.53,-28.632 17.03,-19.094 25.53,-44.547 25.53,-76.368 0,-31.824 -8.5,-57.269 -25.53,-76.363 -17.03,-19.094 -39.2,-28.633 -66.53,-28.633 z m 281.41,335.996 c 13.28,0 24.38,4.45 33.31,13.344 8.93,8.903 13.4,19.738 13.4,32.516 0,13.23 -4.47,24.297 -13.4,33.191 -8.93,8.899 -20.03,13.352 -33.31,13.352 -12.82,0 -23.7,-4.453 -32.63,-13.352 -8.93,-8.894 -13.4,-19.961 -13.4,-33.191 0,-12.778 4.47,-23.613 13.4,-32.516 8.93,-8.894 19.81,-13.344 32.63,-13.344 z m 29.85,-403.203 v 327.602 h -59.01 V 442.945 Z m 226.98,0 c 10.7,0 19.84,0.789 27.42,2.356 7.57,1.558 12.7,2.801 15.38,3.687 v 53.723 c -2.68,-0.898 -6.47,-1.57 -11.37,-2.012 -4.9,-0.449 -9.37,-0.676 -13.38,-0.676 -16.48,0 -28.08,3.696 -34.76,11.079 -6.69,7.39 -10.03,18.464 -10.03,33.242 v 167.863 h 69.54 v 57.074 h -69.54 v 102.067 h -57.5 v -52.371 c 0,-14.329 -3.91,-26.192 -11.7,-35.59 -7.81,-9.403 -20.4,-14.106 -37.79,-14.106 h -17.38 v -57.074 h 61.51 V 534.938 c 0,-29.54 8.03,-52.254 24.08,-68.157 16.04,-15.886 37.89,-23.836 65.52,-23.836 z m 218.7,-8.398 c 14.36,0 27.27,1.687 38.73,5.058 11.44,3.372 21.44,7.747 29.97,13.145 8.53,5.391 15.72,11.23 21.56,17.52 5.83,6.289 10.55,12.355 14.14,18.195 0,-11.684 0.34,-20.891 1.02,-27.629 0.67,-6.738 1.45,-12.129 2.35,-16.184 h 61.97 c -0.9,4.055 -1.8,10.344 -2.69,18.879 -0.9,8.535 -1.35,19.992 -1.35,34.375 v 162.422 c 0,15.727 -2.47,30.781 -7.4,45.156 -4.95,14.379 -12.81,26.957 -23.59,37.746 -10.77,10.782 -24.69,19.434 -41.76,25.946 -17.07,6.515 -37.72,9.773 -61.98,9.773 -17.51,0 -34.01,-2.586 -49.5,-7.754 -15.5,-5.164 -29.08,-12.351 -40.76,-21.566 -11.67,-9.207 -21.21,-20.332 -28.62,-33.359 -7.42,-13.032 -12.02,-27.18 -13.81,-42.461 l 60.62,-14.157 c 2.25,18.875 9.43,34.489 21.55,46.844 12.13,12.359 29.42,18.535 51.88,18.535 24.7,0 42.55,-5.726 53.54,-17.187 11.01,-11.457 16.51,-25.051 16.51,-40.774 0,-5.843 -1.68,-11.007 -5.05,-15.504 -3.37,-4.492 -9.99,-7.41 -19.87,-8.757 L 3060.22,630 c -13.93,-2.246 -26.95,-5.84 -39.07,-10.781 -12.13,-4.946 -22.57,-11.457 -31.32,-19.543 -8.76,-8.086 -15.62,-17.863 -20.55,-29.317 -4.94,-11.464 -7.41,-24.375 -7.41,-38.761 0,-13.028 2.58,-25.379 7.74,-37.059 5.17,-11.691 12.46,-21.906 21.9,-30.676 9.43,-8.758 20.77,-15.832 34.01,-21.23 13.25,-5.391 28.18,-8.086 44.81,-8.086 z m 10.49,58.801 c -15.85,0 -28.39,4.773 -37.64,14.316 -9.25,9.551 -13.87,20.313 -13.87,32.293 0,14.211 4.4,25.195 13.21,32.961 8.8,7.773 19.82,12.762 33.02,14.98 l 97.09,14.649 v -14.649 c 0,-17.304 -2.42,-32.074 -7.27,-44.277 -4.84,-12.207 -11.33,-21.973 -19.48,-29.301 -8.14,-7.32 -17.83,-12.644 -29.06,-15.972 -11.23,-3.332 -23.22,-5 -36,-5 z m 319.44,-50.403 v 487.203 h -67.45 V 442.945 h 67.45"
         style="fill:#27394c;fill-opacity:1;fill-rule:nonzero;stroke:none"
         id="path72" />
      <g
         id="g74">
        <g
           id="g76"
           clip-path="url(#clipPath80)">
          <g
             id="g82"
             clip-path="url(#clipPath86)">
            <path
               d="M -177.066,-6295.94 H 10742.9 v 8930 H -177.066 v -8930"
               style="fill:#27394c;fill-opacity:1;fill-rule:nonzero;stroke:none"
               id="path88" />
            <path
               d="m 1470.25,988.551 h 1980.01 v -730 H 1470.25 v 730"
               style="fill:#27394c;fill-opacity:1;fill-rule:nonzero;stroke:none"
               id="path90" />
          </g>
        </g>
      </g>
    </g>
  </g>
</svg>
